<?xml version="1.0" encoding="UTF-8"?>
<svg id="_图层_2" data-name="图层 2" xmlns="http://www.w3.org/2000/svg" xmlns:xlink="http://www.w3.org/1999/xlink" viewBox="0 0 271.37 271.37">
  <defs>
    <style>
      .cls-1 {
        fill: #e1e6e5;
      }

      .cls-2 {
        fill: #f3f2ee;
      }

      .cls-3 {
        fill: #caf4f5;
      }

      .cls-4 {
        fill: #6e6f75;
      }

      .cls-5 {
        fill: #121212;
      }

      .cls-6 {
        fill: #47474a;
      }

      .cls-7 {
        fill: #6b6b95;
      }

      .cls-8 {
        fill: #0be4f1;
      }

      .cls-9 {
        fill: url(#_未命名的渐变_24);
      }

      .cls-10 {
        fill: #faf4ea;
      }

      .cls-11 {
        fill: #b8d99c;
      }

      .cls-12 {
        fill: #d9e5e3;
      }

      .cls-13 {
        fill: #e8eded;
      }

      .cls-14 {
        fill: #181919;
      }

      .cls-15 {
        fill: #3c3c3e;
      }
    </style>
    <linearGradient id="_未命名的渐变_24" x1="-24.83" y1="228.36" x2="296.2" y2="43.01" gradientUnits="userSpaceOnUse">
      <stop offset=".11" stop-color="#93ffef"/>
      <stop offset=".56" stop-color="#b2bbf7"/>
      <stop offset="1" stop-color="#cf7fff"/>
    </linearGradient>
  </defs>
  <g id="_图层_1-2">
    <path class="cls-9" d="M271.37,0v271.37H0V0h271.37ZM194.56,101.76c-.43-15.4-3.2-30.3-7.28-45.11-2.09-7.58-8.72-38.48-19.66-25.22-2.82,3.42-9.07,18.43-9.95,19.05-1.64,1.16-5.24-2.67-7.93,1-4.41,6.04-1.53,20.46-3.04,26.68-.76,3.14-13.95-2.06-17.47-2.37-9.86-.86-19.07,1.3-28.76,2.05-9.41-11.96-27.62-31.56-42.79-35.26-8.96-2.19-10.26-.27-12.32,8.26-1.63,6.75-1.03,16.66-2.65,22.29-.55,1.92-3.38,2.57-3.81,5.23-.96,5.89,3.87,8.81,4.78,13.15,1.85,8.84-7.9,15.67-6.8,21.7.75,4.08,8.53,3.97,9,6.07.28,1.25-3.06,4.48-1.78,8.71.7,2.31,5.07,4.26,5.65,6.42.49,1.84-2.51,13.31-2.83,16.75-.61,6.45-1.35,15.47-.88,21.81.15,2.08,2.01,13.19,2.77,14.19,3,3.94,7.21-1.55,8.07-.58.32,9.53.62,20.84,3.5,29.93.9,2.83,1.64,6.32,5.01,6.96,2.81.54,12.8,1.14,15.9,1.06,45.01-1.18,90.78-1.59,135.77-1.08,3.65.04,8.54,2.56,11.92-.97,1.37-1.42,6.85-19.43,6.55-21.41-.56-3.61-6.25-3.39-7.56-5.5-2.4-3.86,6.54-28.19,8.04-33.9,3.42-12.99,4.57-23.75,10.69-35.18,2.74-5.11,2.53-11.53-2.98-14.5-3.46-1.86-40.48-12.48-43.65-12.27-2.25.15-3.63,1.06-5.49,2.06Z"/>
    <path class="cls-13" d="M194.56,101.76c1.86-.99,3.24-1.91,5.49-2.06,3.17-.21,40.19,10.41,43.65,12.27,5.5,2.96,5.71,9.39,2.98,14.5-6.12,11.43-7.28,22.19-10.69,35.18-1.5,5.71-10.44,30.04-8.04,33.9,1.31,2.11,7,1.9,7.56,5.5.31,1.98-5.18,19.99-6.55,21.41-3.38,3.52-8.27,1.01-11.92.97-44.99-.5-90.76-.09-135.77,1.08-3.1.08-13.09-.52-15.9-1.06-3.36-.64-4.11-4.13-5.01-6.96-2.87-9.09-3.18-20.4-3.5-29.93-.86-.97-5.07,4.52-8.07.58-.76-.99-2.61-12.11-2.77-14.19-.47-6.34.27-15.36.88-21.81.33-3.44,3.33-14.91,2.83-16.75-.58-2.16-4.95-4.11-5.65-6.42-1.28-4.23,2.06-7.46,1.78-8.71-.47-2.1-8.25-1.99-9-6.07-1.1-6.03,8.65-12.85,6.8-21.7-.91-4.34-5.74-7.26-4.78-13.15.43-2.67,3.26-3.32,3.81-5.23,1.62-5.63,1.02-15.54,2.65-22.29,2.06-8.53,3.36-10.45,12.32-8.26,15.17,3.7,33.38,23.3,42.79,35.26,9.69-.75,18.9-2.92,28.76-2.05,3.51.31,16.71,5.51,17.47,2.37,1.51-6.21-1.37-20.64,3.04-26.68,2.68-3.67,6.28.16,7.93-1,.88-.62,7.13-15.63,9.95-19.05,10.95-13.26,17.58,17.64,19.66,25.22,4.08,14.81,6.85,29.71,7.28,45.11ZM223.48,221.49c1.31-.07,2.64.18,3.94-.04-.66-4.45,6.81-17.72,4.89-20.76-.43-.68-7.69-2.65-7.92-3.78,1.4-15.65,7.39-30.24,11.57-45.24,1.83-6.58,2.88-17.81,5.37-23.58.96-2.23,3.05-2.14,3.67-4.26,1.31-4.44.66-8.41-4.01-10.13l-40.14-11.65c-6.6.68-5.46,7.28-6.58,11.92-.24,1-.29,3-1.7,2.77,0-25.94-3.98-54.28-13.95-78.34-4.37-10.53-5.22-11.55-11.42-1.39-3.1,5.08-5.86,11.11-7.65,16.8-1.35.97-6.43-1.8-7.81-.85-4.09,2.82,1.55,28.02-6.68,29.62-3.31.64-14.77-4.4-19.79-4.79-8.46-.64-18.22,2.25-26.42,4.01-4.86-9.91-16.15-20.75-25.09-27.33-7.08-5.21-14.41-9.42-23.28-10.56-2.73.26-4.54,28.81-5.55,32.28-.4,1.36-1.68.41-2.01.65-1.99,1.42-2.32,1.41-1.83,4.25.11.61,3.65,8.26,4.01,8.56.57.47,1.57.01,1.81.16,3.54,5.29-8.35,20.5-7.92,22.35s8.69,4.7,10.91,4.6c.72,3.12-4.31,6.8-3.83,9.33.36,1.91,6.16,5.2,6.66,7.32.35,1.46-3.6,17.61-3.87,21.71-.69,10.26-.13,21.48,2.04,31.46l3.43-2.05,4.54-8.91c.1,10.76.32,22.54,2.28,33.15.77,4.18,1.77,10.63,5.71,12.74-1.78-12.42-3.88-24.9-4.97-37.42-.75-8.5-.51-17-1-25.44,2.57-.48,2.72,4.02,2.86,5.61.32,3.46-.14,6.93.13,10.35.56,7.1,3.24,40.24,6.39,43.99,2.51,2.99,6.19,3.59,5.5-1.5-1.86-13.71-6.13-27.43-6.9-41.49-.59-10.7.13-26.01,1.98-36.48.33-1.86-1.14-4,2.01-3.42-.03,2.45,1.01,3.79,1,3.99-.03.66.04,1.33,0,2-.22,3.95-1.91,10.1-2.04,14.43-.65,21.96,2.33,42.93,7.17,64.23,2.05,1.7,4.14.19,5.84.16,1.99-.03,3.99,0,5.99,0,1.33,0,2.66,0,3.99,0,6.28.04,12.69-.28,18.96,0,.16,0,1,1.21,2.41,1.05,1.85-.2,4.47-3.08,5.43-4.69,1.18-1.98,1.14-5.45,3.13-6.33,1.06,2.85,1.43,6.17,2.56,8.97.64,1.6-.1,2.44,2.44,1.99l-.99-6.97c7.29,1.87,8.9-4.09,6.25-9.74-3.33-7.09-10.88,4.57-13.72-1.25s2.2-3.39,6.05-4.91c4.53-1.79,3.73-6.85,11.89-6.07,1.17,3.75-2.46,7.55-2.49,11.47-.01,1.35,2.55,14.71,3.01,15.73,1.44,3.17,5.28.77,5.98.75,1.33-.04,2.67.07,3.99,0,2.31-.12,4.66.07,6.98,0,1-.03,2,.04,3,0,0-4.83.54-9.69.97-14.5.12-1.3,1.02-2.67,1.02-2.97v-72.83c0-.31-.91-1.7-1.03-2.97-.21-2.15.23-4.37.04-6.51,2.38-.48,2.26,1.05,2.69,2.75,2.16,8.45.42,17.18,2.33,25.65l-2.03,66.39h2.97c8.29-23.86,12.01-49.03,12.93-74.29.31-1.17,2.14-.34,3.05-.55-1.02,27.38-5.07,54.69-14.98,80.3-.02,1.73,4.67-.5,5-.48,3.57.16,6.68,1.2,10.97,1,1.66-.08,3.34.07,4.99,0,1.3-1.28-3.41-13.88-2.82-16.38.26-1.08,3.59-2.57,4.83-4.05,4.04-4.83,4.07-9.55,3.97-15.48h2.99c.36,12.04-.9,23.92-1,35.92,1.32.07,2.67-.09,4,0,6.93.42,16,.39,22.95,0ZM194.54,202.53c-2.8-.58-4.24,1.22-4.77,3.71-.7,3.29-.36,10.82,3.77,9.26l1-12.97Z"/>
    <path class="cls-12" d="M58.86,156.64c-1.98.09-3.91.05-3.94-2.4-.05-4.65,3.27-21.42,5.17-25.81,8.05-18.6,22.2-37.64,43.44-41.35,6.07-1.06,10.33.24,15.7-.27,7.59-.72,11.19-4.01,20.01-.07,4.74,2.12,4.28,4.11,6.02,7.95.45.99,1.86,1.67,2.2,2.79,1,3.33.12,9.22,2.19,13.26-1.67.26-4.43-.57-5.78.22-1.2.69-5.81,12.04-8.65,14.79-3.19,3.1-8.51,3.46-10.85,5.89-1.22,1.27-.46,2.76-.65,3.05-.15.22-3.67.37-2.99,2.99-17.08,1.28-9.03-1.52-12.97-11.97-2.93-7.78-10.32,3.74-13.52-.95-1.22-1.79-.5-13.82-.94-17.01-5.73.87-7.14,11.35-9.48,12.52-2.22,1.11-7.69-.87-7.92-.55-.39.54-2.86,11.25-3.05,12.96-.07.64,0,1.34,0,2,0,.33,0,.67,0,1-3.16-.57-1.68,1.56-2.01,3.42-1.85,10.48-2.57,25.78-1.98,36.48l-4.99-1c-.27-3.42.19-6.89-.13-10.35-.15-1.59-.3-6.09-2.86-5.61-.06-.99.08-2,0-3-1.12-.41-1.88,1-1.99,1Z"/>
    <path class="cls-5" d="M42.9,76.82c.34-.24,1.62.72,2.01-.65,1.01-3.47,2.82-32.02,5.55-32.28,8.86,1.15,16.2,5.35,23.28,10.56,8.94,6.58,20.23,17.42,25.09,27.33,8.2-1.76,17.96-4.65,26.42-4.01,5.03.38,16.48,5.43,19.79,4.79,8.23-1.6,2.59-26.79,6.68-29.62,1.38-.96,6.46,1.81,7.81.85,1.79-5.69,4.55-11.72,7.65-16.8,6.2-10.16,7.05-9.13,11.42,1.39,9.98,24.05,13.95,52.39,13.95,78.34,1.4.24,1.46-1.77,1.7-2.77,1.12-4.63-.02-11.24,6.58-11.92l40.14,11.65c4.68,1.71,5.32,5.68,4.01,10.13-.62,2.12-2.71,2.03-3.67,4.26-2.49,5.77-3.54,17-5.37,23.58-4.18,15.01-10.17,29.59-11.57,45.24.22,1.13,7.48,3.09,7.92,3.78,1.92,3.04-5.54,16.32-4.89,20.76-1.3.22-2.63-.03-3.94.04v-1l3.96-17.92-26.39-7.03-.51,24.96v1c-1.32-.08-2.67.07-4,0,.1-12.01,1.36-23.88,1-35.92-.08-2.58-.93-4.78-1-5.99-1.01-18.38-4.79-31.31-6.97-48.4-1.87-14.64-1.51-30.89-3.14-45.74-.29-2.68-1.05-5.08-1.86-7.62-.19-.6.5-2.01-.5-2.01-.98,0-.3,1.27-.5,2.01-2.01,7.58-5.81,22.42-4.99,29.93h-2.99c-.43-3.2.67-10.74,1.28-14.19,1.3-7.45,6.38-15.16,2.71-21.73v-1c4.55,1.15,3.14-3.62,2.73-6.23-.62-3.92-7.8-27.49-10.22-28.69-2.25,4.84-9.86,15.86-10.3,20.63-.15,1.65,2.12,3.65,3.82,3.31l1.51-4.98c2.93-.41,3.88,1.41,3.47,3.98l-2.98-1c-.24,2.08-.37,5.07-1,6.98-.32-.08-.72.1-1,0-2.36-.82-6.97-6.93-9.97-8.49-1.21-.63-1.76-.75-2.53.48-.86,1.36-.71,17.58-.5,20.52.15,2.14,2.43,11.01,2.03,11.43-.17.19-3.81.43-4.99,1,.31-2.78-.13-3-2.5-3.99-18.06-7.47-50.62-4.88-66.27,7.55-1.79,1.42-2.15,3.66-5.06,5.42h-2c.41-.61.33-1.8,1.42-3.02,2.17-2.42,5.25-2.82,5.46-3.06,1.75-1.94-6.99-15.75-7.88-18.86l1-2c2.19,2.81,6.93,13.97,9.65,14.86,2.12.7,11.99-2.76,11.15-6.15-1.03-4.14-19.56-21.6-24.79-23.68-.13-1.58-.16-1.13-1-2-3.69-3.8-12.55-5.66-16.95-8.98-1.4,9.66-3.91,19.04-3,28.93,6.92-1.13,14.92-1.53,21.94-.99.55,3.11-1.56,1.82-3.46,1.98-7.83.65-15.66,1.37-23.48,2.01,0-.07-1.01-.38-1-1ZM241.43,122.71c.56-.61,0-3.56-1.69-3.79-10.93-2.12-22.6-9.72-33.18-11.71-5.31-1-13.9.34-5.84,3.84,4.08,1.77,39.27,13.23,40.7,11.67ZM195.55,122.72c-1.42,6.36-3.28,13.05.18,19.28,1.88,3.38,4.68-.23,7.8-.34.18-.25-1.69-4.59-1.99-4.98-.1-.13-1.97.49-2.1-.62-.15-1.29,1.07-2.15,1.1-2.37,1.21.57.81,2.78,1,2.99.3.35,6.56,3.09,8.26,4.23,1.31.88,4.13,1.45,3.72,3.24-.35,1.5-7.11-.77-9.25-.33-9.94,2.07-4.08,12.89-3.69,20.25.3,5.71-1.26,20.81.12,24.82.69,2,11.54,6.06,13.19,5.58,2.97-.86.39-6.27,2.62-7.92.5,1.08,2.37,6.49,3.98,4.98.31-5.54,3.34-11.43,3.96-16.6.31-2.59-.93-3.17-.95-3.35-.1-.79.39-1.5,1-2,1.09-.89.52,1.36,2-2,.47-1.06.64-2.01,1-2.99,4.6-12.79,7.43-26.59,9.93-39.86l-5.93-1.04c.09,5.19,1.38,7.78,0,12.97-.9-1.97-1.65-4.9-2-6.98s.87-4.94-.98-6.5c-1.19-1-23.31-7.79-24.96-7.46.77-2.7-5.73-3.25-5.98-3,.03,3.46-1.26,6.68-2,9.98Z"/>
    <path class="cls-12" d="M167.61,64.85c-.39-2.51,6.11-5.68,6.98-4.99.25.2-.22,1.63,0,1.99l-.98.54c.49,3.5,4.53,6.86,5.97,9.44,3.66,6.57-1.41,14.28-2.71,21.73-.6,3.45-1.7,10.98-1.28,14.19.38,2.82,3.07,6.39,4.76,8.71.71.97,2.03,3.87,3.22,1.27,4.5,5.44,1.9,5.96,3.1,12.37,1,5.35,9.09,32.08,4.93,35.07-1.94,1.39-4.18-.46-4.88-2.24.55-4.8,2.66-19.34-1.16-22.25-1.93-1.47-2.13-.19-2.99,0-.91.2-2.74-.62-3.05.55-.92,25.26-4.65,50.42-12.93,74.28h-2.97s2.03-66.39,2.03-66.39c-1.92-8.47-.18-17.19-2.33-25.65-.43-1.69-.31-3.22-2.69-2.75-.08-.95.32-1.69-1-2-2.38-.55-4.84,1.22-6.9-1.58-3.94-5.34,1.14-3.71,2.91-5.41s.66-3.37,1-3.99c.04-.08,1.33.23,1.69-.33.55-.86-.06-2.53.86-2.73,4.02-.9,8.46,3.8,9.42-1.92,1.41-.17,4.24.68,5.11-.58,1.57-2.29,2.35-12.85,3.17-16.59.51-2.33,2.64-4.94,2.6-7.3,0-.5-3.17-8.96-3.45-9.4-1.99-3.13-5.79-3.3-8.42-4.05Z"/>
    <path class="cls-14" d="M127.7,134.69c-.41-4.22,5.97-2.22,7.77-3.22,3.04-1.69,9.6-18.21,10.69-18.73,2.97,6.56,7.75,12.13,11.98,17.95,2.26.41,1.38-.98,1.49-2.47.23-3.14-.15-6.36,0-9.5,1.32.3.91,1.04,1,2,.19,2.14-.25,4.36-.04,6.51.12,1.27,1.03,2.66,1.03,2.97v72.83c0,.3-.91,1.67-1.02,2.97-.43,4.81-.98,9.67-.97,14.5-.99.04-2-.04-3,0,1.55-9.63,1.47-19.28,2-28.93.04-.76,2.89-6.62-.38-5.88-1.98.45-12.63,4.02-13.87,4.84-7.09,4.68-3.97,24.17,1.28,29.97-.69.02-4.53,2.42-5.98-.75-.46-1.01-3.02-14.37-3.01-15.73.03-3.92,3.66-7.72,2.49-11.47-8.15-.78-7.36,4.28-11.89,6.07-3.85,1.52-8.76-.63-6.05,4.91,2.84,5.82,10.4-5.84,13.72,1.25,2.65,5.65,1.04,11.61-6.25,9.74l.99,6.97c-2.54.45-1.8-.39-2.44-1.99-1.13-2.8-1.49-6.12-2.56-8.97-1.99.89-1.95,4.35-3.13,6.33-.96,1.61-3.58,4.49-5.43,4.69-1.4.15-2.24-1.05-2.41-1.05,5.17-5.33,3.99-12.15,3.99-18.95-.56-.59-7.51,2.64-5.97-.49,3.1-4.61,16.62-3.42,17.85-8.18,2.22-8.58-17.57-1.71-21.12-.09-1.83.83-2.5,3.05-4.71,2.76.64-9.02.65-11.39-8.98-8.96-.63,2.33,2.15,5.53,1.8,7.33s-3.18,2.74-3.79,3.63c.1-.63-.14-1.44,0-2,.29-1.15,1.8-3.96.96-4.95-.37-.43-9.31-2.11-10.94-3.03.42-.56.62-1.38,1-2,1.73.79,6.71,2.4,8.29,2.06.74-.16,2-4.38,8.16-4.11,7.17.32,5.64,6.24,6.51,7.05.6.55,12.4-4.86,15.49-5.04,6.28-.36,8.59,3.83,10.87,3.97s16.78-4.12,19.52-5.43c1.28-.61,6.99-4.14,6.99-4.99v-24.44c-1.63-.73-3.35,2.41-3.99,3.99.12-3.49.62-2.75-2.45-3-7.79-.61-16.95.92-24.49,0-1.85-.22-6.18-1.16-4.99-2.99.07-.04.8-.78,1-1,7.21.34,14.24,1.12,21.5,1.04,4.68-.05,8.61-2.22,13.41-.05-1.54-4.83-.06-11.7-1.43-16.01-.3-.96-10.71-15.83-11.52-16.42-1.03-.75-1.33.38-1.86,1.16l-6.13,10.33,13.96,3h-17.46c-.64,0-7.6,7.07-10.22,7.74-2.85.73-21.72.85-22.25-1.42-.63-2.71.53-7.28.04-10.31-1.01-1.13-11.83,7.8-14.96,5.98-.53-.52.07-9.05-2.49-7.98-.67.28-9.33,8.68-10.49,9.97-.31.34-.74.59-1,1,0-.21-1.03-1.54-1-3.99,0-.33,0-.67,0-1,1.05-.17,1.58-1.73,2-2,6.11-3.88,11.95-6.98,13.98-14.96,1.63-.27.93,1.34.99,2.47.22,4.58-.34,8.93,1,13.48,5.23-1.21,9.78-7.08,14.96-7.98v13.97h19.45c.43,0,7.04-4.71,6.48-4.98-1.32,0-2.66-.04-3.99-.01ZM132.69,204.53l-5.96,2.49c5.43,5.83,6.6,6.97,5.96-2.49ZM128.2,212.51v1c.65-.33.65-.67,0-1Z"/>
    <path class="cls-7" d="M92.79,197.54c.61-.89,3.43-1.8,3.79-3.63s-2.42-5-1.8-7.33c9.63-2.43,9.62-.06,8.98,8.96,2.21.29,2.88-1.93,4.71-2.76,3.56-1.62,23.34-8.5,21.12.09-1.23,4.76-14.75,3.57-17.85,8.18-1.54,3.13,5.42-.1,5.97.49,0,6.8,1.18,13.62-3.99,18.95-6.27-.28-12.67.04-18.96,0-5.47-7.02-7.31-15.21-2-22.95Z"/>
    <path class="cls-14" d="M47.89,89.79c.85.46,1.5,2.89,3.99,2,1.33,1.42-8.58,15.76-8.85,18.63-.29,3.07,15.59,6.39,16.9,5.79,3.19-1.47,6.78-13.88,11.91-14.45-7.86,13.1-19.95,35.01-19.95,50.38v26.94c0,.21,1.68,1.81,1.98,1.5,1.95-7.95,4.66-15.66,5-23.94.11,0,.87-1.41,1.99-1,.09.99-.05,2,0,3,.49,8.44.26,16.94,1,25.44,1.1,12.52,3.19,25,4.97,37.42-3.94-2.11-4.94-8.56-5.71-12.74-1.95-10.6-2.17-22.39-2.28-33.15l-4.54,8.91-3.43,2.05c-2.17-9.99-2.73-21.21-2.04-31.46.28-4.1,4.22-20.25,3.87-21.71-.51-2.13-6.3-5.42-6.66-7.32-.48-2.53,4.55-6.21,3.83-9.33-2.23.1-10.47-2.71-10.91-4.6s11.45-17.06,7.92-22.35c.23.15.74-.14,1,0ZM57.83,119.77c-3.08-4.33-10.09,4.49-8.51,6.94.39.6,4.94,3.55,5.54,2.99-.77-2.41,4.19-8.21,2.97-9.93Z"/>
    <path class="cls-5" d="M74.83,141.67c-.27,3.28.22,6.69,0,9.98,0,.11-1.39.94-.99,1.99.65.06,1.34-.05,1.99,0,4.7.44,8.27-.9,12.43-1.04,6.81-.23,13.69.25,20.49.04.3.61.95.94,1,2-1.33,1.05-6.27,1.33-6.85,2.15s.14,2.85-.13,3.84l-1.01-4.98c-7.98.75-15.92.81-23.93.99-.33,0-.67-.02-1,0-.66.04-1.33-.06-1.99,0-.04,6.4,2.45,12.53,3.72,18.72.25,1.22-.57,2.66-.26,4.25.56,2.92,2.97,4.8,5.51,5.96-.38.61-.58,1.43-1,2-.26.36-.85.67-1,1-.76,1.7-1.4,1.45-.8,4.24.14.64,4.42,9.35,4.81,9.73,1.79,1.72,1.7-.8,2.08-1.43.98-1.62,1.81-3.87,2.9-5.55.62.1,1.35-.07,2,0-.14.55.1,1.36,0,2-5.31,7.73-3.47,15.93,2,22.95-1.33,0-2.66,0-3.99,0-2.28-7.68-5.26-9.7-5.99,0-1.7.03-3.78,1.53-5.84-.16-4.85-21.3-7.82-42.27-7.17-64.23.13-4.32,1.82-10.48,2.04-14.43h1ZM80.8,208.51c.8-3.34,2.35-9.19-2.98-9.96,1.24,2.86.2,8.27,2.98,9.96Z"/>
    <path class="cls-5" d="M185.57,140.67l-2,27.93c2.98.34,7.17-.99,9.53.99,1.95,1.65.14,5.27.37,7.52.13,1.31,1.07,2.33,1.08,2.46.13,1.97-.03,4,0,5.99.1,5.94.07,10.66-3.97,15.48-1.24,1.48-4.58,2.97-4.83,4.05-.59,2.5,4.12,15.1,2.82,16.38-1.65.07-3.34-.08-4.99,0,1.71-3.88-4.45-17.59-3.96-19.36.42-1.5,4.47-1.57,6.52-3.52,4.94-4.69,7.25-18.35,4.21-24.3-1.24-2.43-7.29-1.12-7.72-.66-.29.3.04,3.94-.18,5.31-2.2,14.07-5.34,28.06-9.85,41.53-.33-.02-5.02,2.21-5,.48,9.91-25.6,13.96-52.92,14.98-80.3.86-.19,1.07-1.47,2.99,0Z"/>
    <path class="cls-4" d="M183.58,221.49c-4.29.2-7.41-.83-10.97-1,4.52-13.48,7.65-27.47,9.85-41.53.21-1.37-.11-5.01.18-5.31.43-.45,6.48-1.77,7.72.66,3.04,5.95.73,19.61-4.21,24.3-2.05,1.95-6.1,2.02-6.52,3.52-.49,1.77,5.67,15.48,3.96,19.36Z"/>
    <path class="cls-4" d="M156.64,220.49c-2.32.07-4.67-.12-6.98,0l-3.84-20.27c.61-2.47,10.33-6.92,12.82-8.66-.52,9.66-.44,19.31-2,28.93Z"/>
    <path class="cls-8" d="M145.66,220.49c-5.25-5.81-8.37-25.29-1.28-29.97,1.25-.82,11.89-4.39,13.87-4.84,3.26-.74.42,5.12.38,5.88-2.5,1.74-12.22,6.19-12.82,8.66l3.84,20.27c-1.32.07-2.66-.04-3.99,0Z"/>
    <path class="cls-1" d="M68.84,175.59c.78,14.06,5.05,27.78,6.9,41.49.69,5.09-2.98,4.48-5.5,1.5-3.16-3.75-5.84-36.89-6.39-43.99l4.99,1Z"/>
    <path class="cls-12" d="M194.54,202.53l-1,12.97c-4.13,1.56-4.48-5.97-3.77-9.26.53-2.49,1.98-4.29,4.77-3.71Z"/>
    <path class="cls-15" d="M223.48,220.49v1c-6.95.39-16.01.42-22.95,0v-1c6.95-1.65,16-1.65,22.95,0Z"/>
    <path class="cls-15" d="M43.9,77.82c.01.43-.9,1.05-.33,2.75,1.15,3.45,3.18,5.92,4.32,9.23-.26-.14-.77.15-1,0s-1.24.31-1.81-.16c-.36-.3-3.9-7.95-4.01-8.56-.5-2.84-.17-2.83,1.83-4.25-.01.62,1,.93,1,1Z"/>
    <path class="cls-15" d="M90.79,220.49c-1.99,0-3.99-.03-5.99,0,.73-9.7,3.71-7.68,5.99,0Z"/>
    <path class="cls-1" d="M196.55,179.58c.07,1.21.92,3.41,1,5.99h-2.99c-.03-1.98.13-4.01,0-5.99h2Z"/>
    <path class="cls-1" d="M74.83,141.67h-1c.04-.66-.03-1.33,0-2,.25-.4.69-.66,1-1,2.28.7.02,2.72,0,2.99Z"/>
    <path class="cls-1" d="M149.65,89.79c-.13.06-.3,1.05-1,1-.32.06-.69-.08-1,0h-1.99s1,1,1,1c-.02,1.94,16.15,11.37,18.75,11.84,1.5.27,2.08-.86,2.2-.86.33,0,.68.04,1,0-.96,5.72-5.4,1.02-9.42,1.92-.92.21-.31,1.87-.86,2.73-.36.56-1.65.26-1.69.33-2.38-2.64-3.76-7.5-7.98-7.97,1.44,4.77,3.64,8.33,6.98,11.96-1.77,1.7-6.86.07-2.91,5.41,2.07,2.8,4.53,1.03,6.9,1.58-.15,3.14.23,6.36,0,9.5-.11,1.49.77,2.88-1.49,2.47-4.23-5.81-9.01-11.38-11.98-17.95-1.09.52-7.66,17.04-10.69,18.73-1.8,1-8.18-1-7.77,3.22-.78.02-3.86-.15-3.99,0-.96,1.09,2.53,2.58-2.99,2.99-.68-2.63,2.84-2.77,2.99-2.99.2-.29-.57-1.78.65-3.05,2.34-2.43,7.66-2.8,10.85-5.89,2.83-2.75,7.45-14.1,8.65-14.79,1.36-.78,4.11.04,5.78-.22-2.08-4.05-1.2-9.93-2.19-13.26-.34-1.13-1.75-1.81-2.2-2.79-1.74-3.83-1.28-5.83-6.02-7.95-8.82-3.94-12.42-.65-20.01.07-5.37.51-9.63-.79-15.7.27-21.24,3.71-35.4,22.76-43.44,41.35-1.9,4.38-5.22,21.16-5.17,25.81.03,2.45,1.96,2.49,3.94,2.4-.34,8.29-3.05,15.99-5,23.94-.31.32-1.98-1.29-1.98-1.5v-26.94c0-15.37,12.1-37.28,19.95-50.38.37-.62.61-1.33,1-2,1.52.38,2.01-.41,2.99-1,2.91-1.76,3.27-3.99,5.06-5.42,15.64-12.43,48.21-15.02,66.27-7.55,2.37.98,2.81,1.21,2.5,3.99Z"/>
    <path class="cls-1" d="M107.75,125.71c-.64.07-1.38-.11-2,0-5.17.9-9.73,6.76-14.96,7.98-1.34-4.56-.79-8.91-1-13.48-.05-1.12.65-2.74-.99-2.47-2.03,7.98-7.87,11.08-13.98,14.96h-2c.19-1.71,2.66-12.43,3.05-12.96.23-.32,5.7,1.66,7.92.55,2.34-1.17,3.75-11.65,9.48-12.52.44,3.19-.29,15.21.94,17.01,3.2,4.69,10.59-6.84,13.52.95Z"/>
    <path class="cls-13" d="M107.75,125.71c3.94,10.45-4.11,13.25,12.97,11.97,5.52-.41,2.03-1.91,2.99-2.99.13-.15,3.21.02,3.99,0,1.33-.03,2.66,0,3.99.01.56.26-6.05,4.98-6.48,4.98h-19.45v-13.97c.62-.11,1.35.07,2,0Z"/>
    <path class="cls-13" d="M74.83,132.69c-.41.26-.95,1.83-2,2,0-.65-.07-1.35,0-2h2Z"/>
    <path class="cls-6" d="M229.47,129.7l-2,9.98c-1.85.65-11.54,3.54-11.97,4-1.79,1.91,2.44,2.44,2.99,2.98,5.41,5.32,7.31,10.5,4.99,17.96-1.81,5.8-4.84,7.33-10.17,9.28-1.62.59-7.23,1.15-7.78,1.71-1.91,1.96,3.51,2.54,4.38,3.08,2.2,1.37,1.94,4.17,4.6,3.89.3.69,1.38,2.67,2,3.99-2.23,1.65.36,7.06-2.62,7.92-1.65.48-12.5-3.58-13.19-5.58-1.37-4.01.18-19.11-.12-24.82-.39-7.36-6.25-18.18,3.69-20.25,2.13-.44,8.9,1.84,9.25.33.41-1.79-2.4-2.36-3.72-3.24-1.7-1.14-7.96-3.88-8.26-4.23-.19-.22.21-2.43-1-2.99.14-1.08-.6-.81-1-1,0-1,0-2,0-2.99-.03-3.54-.19-6.53,1-9.98.17-.48,1.07-1.15,1-2,.47-.34.84-1.77,2-2,1.65-.33,23.77,6.46,24.96,7.46,1.85,1.56.65,4.51.98,6.5ZM222.22,137.42c5.91-6.51-7.01-12.08-8.54-3.01-.93,5.52,5.63,6.21,8.54,3.01ZM213.17,153.8c-3.27,1.14-4.76,8.27-1.23,10.89,7.77,5.75,12.77-14.93,1.23-10.89Z"/>
    <path class="cls-3" d="M72.83,73.83c.9,3.11,9.63,16.93,7.88,18.86-.22.24-3.29.64-5.46,3.06-1.09,1.22-1.01,2.42-1.42,3.02-.24.36-.78.63-1,1-.39.66-.63,1.38-1,2-5.12.57-8.72,12.98-11.91,14.45-1.31.6-17.19-2.72-16.9-5.79.27-2.88,10.18-17.22,8.85-18.63-2.48.88-3.14-1.54-3.99-2-1.14-3.31-3.18-5.77-4.32-9.23-.56-1.7.34-2.31.33-2.75,7.82-.64,15.65-1.36,23.48-2.01,1.9-.16,4.01,1.13,3.46-1.98.33.02.69-.06,1,0s.67-.05,1,0Z"/>
    <path class="cls-3" d="M165.62,64.85l.5.98c.65-.18.39-.65.5-.98.31.08.69-.09,1,0,2.63.75,6.43.92,8.42,4.05.28.44,3.44,8.89,3.45,9.4.04,2.36-2.09,4.96-2.6,7.3-.82,3.74-1.59,14.3-3.17,16.59-.86,1.26-3.7.41-5.11.58-.32.04-.67,0-1,0l-18.96-11.97c.7.05.87-.94,1-1,1.18-.57,4.82-.82,4.99-1,.39-.43-1.88-9.29-2.03-11.43-.21-2.94-.36-19.16.5-20.52.78-1.23,1.33-1.11,2.53-.48,3,1.56,7.61,7.67,9.97,8.49Z"/>
    <path class="cls-6" d="M200.54,220.49l.51-24.96,26.39,7.03-3.96,17.92c-6.95-1.65-16-1.65-22.95,0Z"/>
    <path class="cls-13" d="M196.55,179.58h-2c0-.13-.95-1.16-1.08-2.46-.23-2.25,1.58-5.87-.37-7.52-2.36-1.98-6.55-.65-9.53-.99l2-27.93c3.82,2.91,1.71,17.45,1.16,22.25.69,1.78,2.94,3.63,4.88,2.24,4.16-2.99-3.93-29.72-4.93-35.07-1.2-6.41,1.4-6.93-3.1-12.37-1.13-1.36-.63-2.86-1-3.99,1.36.26,3.46-.04,3.91-1.63-1.29-2.84-.6-16.24-1.94-17.33-.28-.23-2.15.13-2.97-.01-.76,7.9-1.44,11.38.99,18.96-2.65-.51-3.74-3.67-3.99-5.99-.82-7.51,2.98-22.35,4.99-29.93h1c.81,2.54,1.57,4.94,1.86,7.62,1.64,14.85,1.28,31.1,3.14,45.74,2.18,17.1,5.95,30.02,6.97,48.4Z"/>
    <path class="cls-13" d="M166.61,64.85c.64-1.91.77-4.9,1-6.98l2.98,1c.41-2.57-.54-4.38-3.47-3.98l-1.51,4.98c-1.7.34-3.97-1.66-3.82-3.31.44-4.77,8.05-15.79,10.3-20.63,2.42,1.19,9.61,24.77,10.22,28.69.41,2.61,1.81,7.38-2.73,6.23-.27-3.75-3.28-6.21-4.99-8.98-.22-.36.25-1.79,0-1.99-.87-.69-7.36,2.48-6.98,4.99-.31-.09-.69.08-1,0Z"/>
    <path class="cls-1" d="M68.84,54.87c-3.78,1.63-1.09,3.5,0,5.99.31.71.29,1.56,1,2.99s2.5,2.95,2.99,4.99c-3.84-.3-1.23,1.06-1,2,.2.82-.14,2.06,0,2.99-.31-.06-.67.02-1,0-7.02-.54-15.03-.14-21.94.99-.92-9.88,1.59-19.27,3-28.93,4.4,3.32,13.26,5.18,16.95,8.98ZM55.54,53.01c-2.88.95-4.68,14.78-3.22,16.89,1.25,1.8,14.4,1.97,14.51-2.5s-4.95-16.48-11.28-14.39Z"/>
    <path class="cls-13" d="M73.83,71.83c-.29-.38-.59-.74-1-1-.09-.64.14-1.43,0-2-.49-2.04-2.28-3.55-2.99-4.99-.09-.97.13-2.04,0-2.99-.29-2.14.06-3.32,0-3.99,5.23,2.08,23.76,19.54,24.79,23.68.84,3.39-9.03,6.85-11.15,6.15-2.72-.9-7.46-12.06-9.65-14.86ZM76.83,67.85c-.75.74,5.46,18.78,11.55,14.04,4.79-3.73-10.18-15.39-11.55-14.04Z"/>
    <path class="cls-15" d="M241.43,122.71c-1.43,1.56-36.62-9.9-40.7-11.67-8.06-3.5.53-4.83,5.84-3.84,10.58,1.99,22.24,9.59,33.18,11.71,1.69.23,2.24,3.18,1.69,3.79Z"/>
    <path class="cls-13" d="M231.46,136.68c1.38-5.19.1-7.78,0-12.97l5.93,1.04c-2.5,13.27-5.33,27.07-9.93,39.86h-1c2.32-4.91-1.11-16.01-5.99-17.96l8.99-5.53c.97-.56.7-1.91.99-2.46.38-.7.75-1.05,1-2Z"/>
    <path class="cls-13" d="M223.48,171.6c.02.17,1.26.76.95,3.35-.62,5.17-3.65,11.07-3.96,16.6-1.6,1.51-3.47-3.9-3.98-4.98-.61-1.32-1.7-3.3-2-3.99-.57-1.32-.22-3.46-1.99-4.98,4.17-.93,7.72-3.4,10.97-6Z"/>
    <path class="cls-1" d="M197.54,123.71c-.2,1.69-.12,4.24,0,5.99.06.84-.3,2.48.1,2.92.34.39,1.53-.09,1.9.07.4.18,1.14-.08,1,1-.03.22-1.25,1.08-1.1,2.37.13,1.12,1.99.49,2.1.62.3.38,2.17,4.73,1.99,4.98-3.13.1-5.93,3.72-7.8.34-3.46-6.23-1.59-12.92-.18-19.28l2,1Z"/>
    <path class="cls-14" d="M225.48,164.62c0,1.09-.78,2.09-1,2.99-.14.56.09,1.36,0,2-.61.5-1.1,1.2-1,2-3.26,2.6-6.8,5.07-10.97,6,1.77,1.52,1.43,3.66,1.99,4.98-2.66.28-2.4-2.52-4.6-3.89-.86-.54-6.29-1.12-4.38-3.08.55-.56,6.16-1.12,7.78-1.71,5.34-1.95,8.37-3.48,10.17-9.28h2Z"/>
    <path class="cls-12" d="M195.55,122.72c.74-3.3,2.03-6.52,2-9.98.26-.25,6.75.3,5.98,3-1.15.23-1.53,1.66-2,2-.99.72-1.27,1.04-2,2-1.35,1.78-1.58.48-2,3.99l-2-1Z"/>
    <path class="cls-14" d="M178.59,107.75c.25,2.32,1.34,5.48,3.99,5.99.36,1.13-.13,2.63,1,3.99-1.19,2.61-2.52-.29-3.22-1.27-1.69-2.32-4.38-5.89-4.76-8.71h2.99Z"/>
    <path class="cls-15" d="M231.46,136.68c-.25.94-.62,1.3-1,2-1.1.04-2.01.65-2.99,1l2-9.98c.35,2.08,1.09,5.02,2,6.98Z"/>
    <path class="cls-15" d="M179.58,70.84v1c-1.44-2.58-5.48-5.94-5.97-9.44l.98-.54c1.7,2.77,4.72,5.23,4.99,8.98Z"/>
    <path class="cls-14" d="M69.84,56.87c.06.68-.29,1.85,0,3.99h-1c-1.09-2.49-3.78-4.36,0-5.99.84.86.87.41,1,2Z"/>
    <path class="cls-11" d="M227.47,164.62c-.36.99-.53,1.93-1,2.99h-2c.22-.9,1-1.9,1-2.99h2Z"/>
    <path class="cls-14" d="M73.83,71.83l-1,2c-.33-.05-.68.06-1,0-.14-.93.2-2.17,0-2.99h1c.41.26.7.62,1,1Z"/>
    <path class="cls-13" d="M226.48,167.61c-1.48,3.35-.91,1.1-2,2,.09-.64-.14-1.43,0-2h2Z"/>
    <path class="cls-12" d="M184.57,77.82h-1c.19-.73-.48-2.01.5-2.01.99,0,.31,1.4.5,2.01Z"/>
    <path class="cls-12" d="M165.62,64.85c.28.1.67-.08,1,0-.11.33.15.8-.5.98l-.5-.98Z"/>
    <path class="cls-6" d="M156.64,107.75c-.34.62.7,2.36-1,3.99-3.35-3.63-5.55-7.19-6.98-11.96,4.22.47,5.6,5.34,7.98,7.97Z"/>
    <path class="cls-10" d="M108.75,152.65c-.29-.57.13-1.81-.96-2.49-8.21-5.18-34.41,7.27-29.55-9.57.41-1.42,4.7-4.9,6.05-4.93.32,0,.74,2.6,5.12,2.93,2.88.22,7.4-1.29,8.71-.84,1.94.66,2.01,7.17,8.07,7.97,3.8.5,13.98.35,17.77-.29,6.21-1.04,8.63-6.78,14.27-7.67,5.29-.83,21.16.47,16.93,8.91-1.04,2.07-11.94,2.97-15,3.08-3.16.12-12.33-2.17-15.32.09-.51.39,0,1.66-.14,1.83-.2.22-.93.96-1,1-.4.22-1.79-.25-1.99,0-.67.85,3.9,8.71,5.98,7.98.03.15.86,2.63,1,2.99.37.93.57,1.23,1,2,.82,1.48,1.79,2.8,2.99,3.99,1.86,1.84,3.56,2.94,5.99,3.99.3.28.69.93,1,1,.27.06.72.04,1,0,1.14,1.44,2.76,1.38,3.99,0,.33-.01.67,0,1,0,3.61.03,5.14-1.49,8.38-1.95,6.6,7.09-11.95,12.35-16.97,12.82-6.44.6-8.69-2.85-13.86-2.88-3.78-.02-10.97,3.22-12.93,3.02-2.32-.24-5.21-4.75-10.03-5.09s-13.21,5.79-15.96,1.07c-3.67-6.32,3.93-2.74,7.51-3.39,9.87-1.79,9.88-10.37,13.52-16.49,1.62-2.72,4.62-2.86,4.42-7.06-.05-1.06-.69-1.39-1-2Z"/>
    <path class="cls-2" d="M74.83,138.68c1.16-1.29,9.82-9.69,10.49-9.97,2.56-1.07,1.95,7.46,2.49,7.98,3.12,1.82,13.94-7.11,14.96-5.98.5,3.02-.67,7.59-.04,10.31.53,2.27,19.39,2.15,22.25,1.42,2.62-.67,9.58-7.74,10.22-7.74h17.46l-13.96-3,6.13-10.33c.53-.78.83-1.91,1.86-1.16.81.59,11.22,15.47,11.52,16.42,1.37,4.31-.1,11.19,1.43,16.01-4.81-2.16-8.73,0-13.41.05-7.26.08-14.29-.7-21.5-1.04.15-.16-.37-1.44.14-1.83,2.99-2.26,12.16.03,15.32-.09,3.06-.11,13.96-1.01,15-3.08,4.23-8.44-11.65-9.74-16.93-8.91-5.64.89-8.06,6.63-14.27,7.67-3.8.64-13.98.79-17.77.29-6.06-.79-6.13-7.31-8.07-7.97-1.32-.45-5.83,1.06-8.71.84-4.38-.33-4.81-2.94-5.12-2.93-1.35.03-5.64,3.51-6.05,4.93-4.86,16.84,21.34,4.39,29.55,9.57,1.09.69.67,1.92.96,2.49-6.81.21-13.68-.27-20.49-.04-4.16.14-7.73,1.48-12.43,1.04l-1-2c.22-3.29-.27-6.7,0-9.98.02-.27,2.28-2.3,0-2.99Z"/>
    <path class="cls-2" d="M109.75,154.64c.2,4.2-2.8,4.34-4.42,7.06-3.64,6.12-3.65,14.7-13.52,16.49-3.58.65-11.19-2.92-7.51,3.39,2.75,4.72,11.1-1.4,15.96-1.07s7.71,4.85,10.03,5.09c1.96.2,9.15-3.04,12.93-3.02,5.17.02,7.42,3.48,13.86,2.88,5.02-.47,23.57-5.73,16.97-12.82-3.24.46-4.77,1.98-8.38,1.95-.53-2.82,2.32-1.78,4.02-3.45,4.41-4.3,4.09-7.93,5.95-12.52.64-1.58,2.36-4.72,3.99-3.99v24.44c0,.84-5.71,4.38-6.99,4.99-2.74,1.31-17.17,5.57-19.52,5.43s-4.6-4.33-10.87-3.97c-3.09.18-14.89,5.59-15.49,5.04-.87-.81.66-6.73-6.51-7.05-6.16-.27-7.42,3.95-8.16,4.11-1.58.34-6.56-1.27-8.29-2.06-2.54-1.16-4.95-3.04-5.51-5.96-.31-1.59.51-3.03.26-4.25-1.28-6.2-3.76-12.32-3.72-18.72.66-.05,1.33.04,1.99,0,1.46,4.54,2.88,10.36,5.99,13.97,9.8,11.39,17.18.29,19.95-9.98.27-.99-.48-2.99.13-3.84s5.52-1.1,6.85-2.15Z"/>
    <path class="cls-11" d="M128.7,155.64c7.54.92,16.7-.62,24.49,0,3.06.24,2.57-.49,2.45,3-1.87,4.59-1.54,8.22-5.95,12.52-1.71,1.66-4.55.62-4.02,3.45-.33,0-.67-.01-1,0-.74.03-1.4-.35-3.99,0-.28.04-.73.06-1,0-.27-.36-.6-.82-1-1-2.43-1.05-4.13-2.15-5.99-3.99-.66-3.84-3.14-7.21-3.99-10.97-.19-.85.13-2.05,0-2.99Z"/>
    <path class="cls-8" d="M82.81,187.57c1.62.92,10.57,2.6,10.94,3.03.84.99-.67,3.8-.96,4.95-.64-.07-1.38.1-2,0-4.06-.69-6.7-3.77-8.98-6.98.14-.32.73-.64,1-1Z"/>
    <path class="cls-2" d="M123.71,152.65c-1.2,1.84,3.14,2.77,4.99,2.99.13.94-.19,2.15,0,2.99-.99-.09-1.13,1.29-1,2-2.09.74-6.65-7.12-5.98-7.98.2-.25,1.59.21,1.99,0Z"/>
    <path class="cls-12" d="M132.69,204.53c.64,9.46-.53,8.32-5.96,2.49l5.96-2.49Z"/>
    <path class="cls-13" d="M128.2,212.51c.65.33.65.67,0,1v-1Z"/>
    <path class="cls-4" d="M57.83,119.77c1.22,1.72-3.74,7.51-2.97,9.93-.61.56-5.16-2.39-5.54-2.99-1.58-2.45,5.43-11.27,8.51-6.94Z"/>
    <path class="cls-11" d="M77.82,156.64c8.01-.18,15.95-.24,23.93-.99l1.01,4.98c-2.77,10.26-10.16,21.37-19.95,9.98l-4.99-13.97Z"/>
    <path class="cls-4" d="M90.79,195.55c-1.09,1.68-1.92,3.93-2.9,5.55-.38.63-.29,3.15-2.08,1.43-.39-.38-4.67-9.09-4.81-9.73-.6-2.79.05-2.54.8-4.24,2.28,3.21,4.92,6.3,8.98,6.98Z"/>
    <path class="cls-11" d="M80.8,208.51c-2.78-1.7-1.74-7.1-2.98-9.96,5.33.78,3.77,6.62,2.98,9.96Z"/>
    <path class="cls-11" d="M75.82,153.64c-.65-.06-1.34.05-1.99,0-.4-1.05.98-1.88.99-1.99l1,2Z"/>
    <path class="cls-4" d="M82.81,170.61c-3.1-3.61-4.53-9.43-5.99-13.97.33-.02.67,0,1,0l4.99,13.97Z"/>
    <path class="cls-15" d="M167.61,102.76c-.12,0-.7,1.13-2.2.86-2.6-.46-18.77-9.89-18.75-11.84,0-.07.93-.98,1-1,.31-.08.68.06,1,0l18.96,11.97Z"/>
    <path class="cls-14" d="M75.82,98.77c-.98.59-1.48,1.38-2.99,1,.22-.37.75-.64,1-1h2Z"/>
    <path class="cls-5" d="M147.66,90.79c-.07.02-1,.93-1,1l-1-.99h1.99Z"/>
    <path class="cls-4" d="M213.17,153.8c11.54-4.04,6.54,16.64-1.23,10.89-3.53-2.61-2.04-9.74,1.23-10.89Z"/>
    <path class="cls-4" d="M222.22,137.42c-2.91,3.2-9.47,2.51-8.54-3.01,1.53-9.07,14.44-3.5,8.54,3.01Z"/>
    <path class="cls-15" d="M220.49,146.66c4.88,1.95,8.3,13.04,5.99,17.96h-2.99c2.32-7.46.42-12.64-4.99-17.96.61.12,1.55-.18,2,0Z"/>
    <path class="cls-5" d="M230.47,138.68c-.3.55-.02,1.9-.99,2.46l-8.99,5.53c-.45-.18-1.39.12-2,0-.55-.54-4.78-1.07-2.99-2.98.43-.46,10.12-3.36,11.97-4,.99-.35,1.89-.95,2.99-1Z"/>
    <path class="cls-14" d="M200.54,119.72c-1.19,3.44-1.02,6.43-1,9.98h-2c-.12-1.75-.2-4.3,0-5.99.41-3.51.65-2.21,2-3.99h1Z"/>
    <path class="cls-5" d="M199.54,129.7c0,1,0,2,0,2.99-.37-.17-1.55.31-1.9-.07-.39-.44-.04-2.07-.1-2.92h2Z"/>
    <path class="cls-5" d="M200.54,119.72h-1c.73-.96,1.01-1.27,2-2,.07.84-.83,1.51-1,2Z"/>
    <path class="cls-12" d="M182.58,113.74c-2.44-7.58-1.76-11.06-.99-18.96.82.14,2.68-.22,2.97.01,1.34,1.08.65,14.48,1.94,17.33-.45,1.59-2.55,1.89-3.91,1.63Z"/>
    <path class="cls-12" d="M55.54,53.01c6.34-2.09,11.39,9.79,11.28,14.39s-13.26,4.3-14.51,2.5c-1.46-2.1.34-15.94,3.22-16.89Z"/>
    <path class="cls-5" d="M72.83,68.84c.14.57-.09,1.36,0,2h-1c-.23-.94-2.84-2.29,1-2Z"/>
    <path class="cls-5" d="M69.84,63.85c-.71-1.43-.69-2.28-1-2.99h1c.13.96-.09,2.02,0,2.99Z"/>
    <path class="cls-1" d="M76.83,67.85c1.36-1.35,16.34,10.31,11.55,14.04-6.09,4.74-12.29-13.3-11.55-14.04Z"/>
    <path class="cls-6" d="M132.69,169.61c-1.2-1.19-2.18-2.51-2.99-3.99l-1-2c-.14-.36-.97-2.84-1-2.99-.13-.71.01-2.09,1-2,.85,3.76,3.33,7.13,3.99,10.97Z"/>
    <path class="cls-2" d="M144.67,174.6c-1.23,1.38-2.85,1.44-3.99,0,2.59-.35,3.25.03,3.99,0Z"/>
    <path class="cls-2" d="M129.7,165.62c-.42-.77-.63-1.06-1-2l1,2Z"/>
    <path class="cls-2" d="M139.68,174.6c-.31-.07-.7-.71-1-1,.4.17.73.64,1,1Z"/>
  </g>
</svg>